<svg xmlns="http://www.w3.org/2000/svg" width="95" height="100.003" viewBox="0 0 95 100.003">
  <g id="Image_Tools" data-name="Image Tools" transform="translate(-4484 -2122)">
    <ellipse id="Ellipse_1" data-name="Ellipse 1" cx="47" cy="48.121" rx="47" ry="48.121" transform="translate(4484 2122)" fill="#f2f2f2"/>
    <g id="Group_1184" data-name="Group 1184" transform="translate(4499 2142.019)">
      <path id="Path_517" data-name="Path 517" d="M67.278,118H13.147A3.156,3.156,0,0,0,10,121.147v54.131a3.156,3.156,0,0,0,3.147,3.147H67.278a3.156,3.156,0,0,0,3.147-3.147V121.147A3.136,3.136,0,0,0,67.278,118Z" transform="translate(-8.426 -100.015)" fill="#fff"/>
      <rect id="Rectangle_23" data-name="Rectangle 23" width="45.319" height="37.766" transform="translate(9.127 25.76)" fill="#ade5ff"/>
      <path id="Path_518" data-name="Path 518" d="M89.8,271.346h40.315v-9.961L114.93,246.2Z" transform="translate(-75.869 -207.87)" fill="#36d28f"/>
      <path id="Path_519" data-name="Path 519" d="M73.217,309.3,58,324.517H88.449Z" transform="translate(-48.873 -261.067)" fill="#b2f0bf"/>
      <g id="Group_1183" data-name="Group 1183" transform="translate(17.936 1.563)">
        <path id="Path_520" data-name="Path 520" d="M157.947,27.007a3.122,3.122,0,0,1,1.951.677l-9.3-16.1a3.142,3.142,0,0,0-4.3-1.149l-28.7,16.57Z" transform="translate(-117.6 -10.015)" fill="#72d8ff"/>
        <path id="Path_521" data-name="Path 521" d="M410.4,163.865,393.8,135.1a4.442,4.442,0,0,1,.031.456v41.511l15.421-8.906A3.139,3.139,0,0,0,410.4,163.865Z" transform="translate(-350.338 -115.417)" fill="#72d8ff"/>
      </g>
      <circle id="Ellipse_14" data-name="Ellipse 14" cx="3.462" cy="3.462" r="3.462" transform="translate(19.315 32.62)" fill="#ffb954"/>
      <path id="Path_522" data-name="Path 522" d="M58.325,16.861H24.157L47.564,3.315a1.56,1.56,0,0,1,2.137.578l5.287,9.172A1.566,1.566,0,1,0,57.7,11.5L52.4,2.33A4.685,4.685,0,0,0,46,.612L17.95,16.846c-.016,0-.016.016-.031.016H4.678A4.7,4.7,0,0,0,0,21.549V75.3a4.7,4.7,0,0,0,4.678,4.687H58.325A4.7,4.7,0,0,0,63,75.3V21.549A4.7,4.7,0,0,0,58.325,16.861ZM59.884,75.3a1.566,1.566,0,0,1-1.559,1.562H4.678A1.566,1.566,0,0,1,3.119,75.3V21.549a1.566,1.566,0,0,1,1.559-1.562H58.325a1.566,1.566,0,0,1,1.559,1.562Z" transform="translate(0 0)"/>
      <path id="Path_523" data-name="Path 523" d="M431.774,208.747a1.655,1.655,0,0,0,1.117-.456,1.531,1.531,0,0,0,.456-1.117,1.625,1.625,0,0,0-.456-1.117,1.557,1.557,0,0,0-1.117-.456,1.655,1.655,0,0,0-1.117.456,1.558,1.558,0,0,0-.456,1.117,1.625,1.625,0,0,0,.456,1.117A1.655,1.655,0,0,0,431.774,208.747Z" transform="translate(-363.074 -173.499)"/>
      <path id="Path_524" data-name="Path 524" d="M431.819,248.263,425.3,236.98a1.579,1.579,0,0,0-2.738,1.574l6.515,11.283a1.576,1.576,0,0,1-.582,2.156L418.38,257.83a1.579,1.579,0,0,0,1.574,2.738l10.118-5.838A4.745,4.745,0,0,0,431.819,248.263Z" transform="translate(-352.45 -199.417)"/>
      <path id="Path_525" data-name="Path 525" d="M247.574,159.147a1.655,1.655,0,0,0,1.117-.456,1.557,1.557,0,0,0,.456-1.117,1.625,1.625,0,0,0-.456-1.117,1.557,1.557,0,0,0-1.117-.456,1.655,1.655,0,0,0-1.117.456,1.557,1.557,0,0,0-.456,1.117,1.625,1.625,0,0,0,.456,1.117A1.655,1.655,0,0,0,247.574,159.147Z" transform="translate(-207.575 -131.646)"/>
      <path id="Path_526" data-name="Path 526" d="M94.893,156H88.756a1.574,1.574,0,1,0,0,3.147h4.563v22.439L80.825,169.092a1.557,1.557,0,0,0-1.117-.456,1.625,1.625,0,0,0-1.117.456l-8.34,8.34a1.569,1.569,0,0,0,2.219,2.219l7.223-7.223,13.6,13.6.016.016v7.726H53.366L64.79,182.342l8.482,8.482A1.569,1.569,0,1,0,75.49,188.6l-9.6-9.6a1.557,1.557,0,0,0-1.117-.456,1.625,1.625,0,0,0-1.117.456l-12.51,12.541v-32.4H72.233a1.574,1.574,0,1,0,0-3.147H49.574A1.578,1.578,0,0,0,48,157.574v37.766a1.578,1.578,0,0,0,1.574,1.574H94.893a1.578,1.578,0,0,0,1.574-1.574V157.574A1.578,1.578,0,0,0,94.893,156Z" transform="translate(-40.447 -131.818)"/>
      <path id="Path_527" data-name="Path 527" d="M113.7,204.035A5.035,5.035,0,1,0,118.735,199,5.05,5.05,0,0,0,113.7,204.035Zm6.924,0a1.888,1.888,0,1,1-1.888-1.888A1.894,1.894,0,0,1,120.624,204.035Z" transform="translate(-95.953 -167.952)"/>
    </g>
  </g>
</svg>
